Coordinates
version=1
nRows=17
nColumns=36
inDegrees=yes

Units are S.I. units (second, meters, Newtons, ...)
If the header above contains a line with 'inDegrees', this indicates whether rotational values are in degrees (yes) or radians (no).

endheader
time	pelvis_tilt	pelvis_list	pelvis_rotation	pelvis_tx	pelvis_ty	pelvis_tz	hip_flexion_r	hip_adduction_r	hip_rotation_r	knee_angle_r	knee_angle_r_beta	ankle_angle_r	subtalar_angle_r	mtp_angle_r	hip_flexion_l	hip_adduction_l	hip_rotation_l	knee_angle_l	knee_angle_l_beta	ankle_angle_l	subtalar_angle_l	mtp_angle_l	lumbar_extension	lumbar_bending	lumbar_rotation	arm_flex_r	arm_add_r	arm_rot_r	elbow_flex_r	pro_sup_r	arm_flex_l	arm_add_l	arm_rot_l	elbow_flex_l	pro_sup_l
      0.33000000	      3.83039289	     -1.63087902	     -0.26511465	      0.27856351	      0.96761612	     -0.22320491	     -2.29858498	      4.67037788	     -9.97630140	      7.29012657	      0.12723671	      5.10383327	    -13.96232530	     -6.22706321	     22.43649284	     -5.47035080	     -8.29255578	     47.60091069	      0.83079262	     -1.69829965	    -20.14988908	     -6.22706321	     -8.51873792	      2.10540557	      4.89787055	      5.00387608	    -10.34316490	    -17.65083235	     40.42482634	    112.64118973	     -7.53250525	     -4.96876828	    -14.08242832	     17.53152630	    105.20769835
      0.34000000	      3.80599910	     -1.61339241	     -0.54713770	      0.28931083	      0.96750557	     -0.22182534	     -3.16585126	      4.72056041	     -9.82343044	      6.97786717	      0.12178676	      5.50932450	    -13.60509865	     -6.24463375	     22.80038079	     -5.47623519	     -9.02276846	     44.42668009	      0.77539184	     -2.18404199	    -20.76605665	     -6.24463375	     -8.58190476	      2.05849549	      5.29607682	      5.78453694	    -10.58973801	    -17.53469163	     41.12355842	    112.63986120	     -8.17449612	     -5.00948904	    -14.53971401	     17.78466544	    105.14006740
      0.35000000	      3.87053838	     -1.64448143	     -0.77746697	      0.30015800	      0.96731285	     -0.22065934	     -4.11416185	      4.78239486	    -10.00189842	      6.73166460	      0.11748971	      6.33951723	    -12.62473211	     -6.31277858	     22.94365586	     -5.45781372	     -9.70309384	     40.98384990	      0.71530312	     -3.89393592	    -22.58137316	     -6.31277858	     -8.75698428	      2.05204793	      5.55830840	      6.60493075	    -10.85924322	    -17.22783132	     41.79519074	    112.52577572	     -8.95876864	     -4.85373794	    -16.14557835	     18.64411022	    104.96584559
      0.36000000	      3.57145845	     -1.99987014	     -0.98748430	      0.31100732	      0.96625607	     -0.21950826	     -4.61261082	      5.23203510	    -10.01277688	      6.56864746	      0.11464453	      6.58838513	    -12.61033058	     -6.31821716	     23.57643643	     -5.88341320	    -10.35812910	     37.84337226	      0.66049145	     -3.88905278	    -22.36393198	     -6.31821716	     -8.41790424	      2.49299350	      5.89278496	      7.32637678	    -11.13506363	    -17.18023806	     42.28243088	    112.54377978	     -9.55375044	     -4.80559769	    -16.24900117	     18.56564058	    104.95267821
      0.37000000	      3.90827047	     -1.76802069	     -1.43776764	      0.32189917	      0.96624279	     -0.21815549	     -5.94128613	      4.99074652	     -9.50464957	      6.19045555	      0.10804383	      7.21087761	    -12.11337697	     -6.34822734	     23.04251289	     -5.65559119	    -11.50040856	     33.93475746	      0.59227325	     -4.89866095	    -22.37215460	     -6.34822734	     -8.96696604	      2.13444738	      6.41886084	      8.09856676	    -11.39968871	    -16.73879414	     43.01009847	    112.54332897	    -10.03141859	     -4.81625617	    -16.75164075	     18.98809141	    104.91968965
      0.38000000	      3.85315576	     -1.83116683	     -1.79859699	      0.33285676	      0.96528090	     -0.21703572	     -6.74295321	      5.06310291	     -9.26540465	      5.98869274	      0.10452241	      7.73744691	    -11.87459846	     -6.36620502	     23.07475407	     -5.73229533	    -12.46420923	     30.33799095	      0.52949783	     -5.50214703	    -21.91568864	     -6.36620502	     -8.97004994	      2.18283359	      6.82780679	      8.79941638	    -11.64727905	    -16.45062256	     43.59155894	    112.55079949	    -10.55735538	     -4.75310830	    -17.05938413	     19.15150907	    104.88956812
      0.39000000	      3.86174827	     -1.94922324	     -2.17541137	      0.34394159	      0.96418554	     -0.21601925	     -7.61971243	      5.17403482	     -8.99955174	      5.81031638	      0.10140915	      8.32585769	    -11.57737367	     -6.38479504	     22.97963954	     -5.83708510	    -13.38824686	     26.76454998	      0.46712952	     -5.99913242	    -21.21014109	     -6.38479504	     -9.02763061	      2.29816658	      7.22627001	      9.47667584	    -11.91819039	    -16.09005910	     44.17993851	    112.56119338	    -11.07445131	     -4.65318192	    -17.38384871	     19.33513221	    104.85298685
      0.40000000	      3.69871455	     -2.16737706	     -2.55330873	      0.35493148	      0.96255805	     -0.21511942	     -8.24221971	      5.37760975	     -8.61679437	      5.77844516	      0.10085289	      8.79123529	    -11.36607283	     -6.39614502	     23.11618305	     -6.00234359	    -13.97951532	     23.38615472	      0.40816540	     -6.22191934	    -20.27629623	     -6.39614502	     -8.89852347	      2.55439287	      7.55856254	     10.17847435	    -12.14693379	    -15.80065749	     44.74941429	    112.58443092	    -11.56611439	     -4.50885733	    -17.59122812	     19.40442895	    104.82582780
      0.41000000	      3.81614506	     -2.28257625	     -2.96832274	      0.36618482	      0.96117343	     -0.21423892	     -9.22361787	      5.43787412	     -8.34972866	      5.65579610	      0.09871226	      9.59280390	    -11.09635769	     -6.41734081	     22.83253885	     -6.07740729	    -14.79166543	     20.01662834	      0.34935607	     -6.20043058	    -18.85146091	     -6.41734081	     -9.08364297	      2.65771410	      7.96326419	     10.82891595	    -12.42570225	    -15.23279943	     45.28941506	    112.59586810	    -11.99729004	     -4.36881271	    -18.00920589	     19.62800136	    104.77960057
      0.42000000	      3.78709694	     -2.50015202	     -3.38325326	      0.37741591	      0.95930743	     -0.21347849	     -9.97268115	      5.57813985	     -8.08046102	      5.70983392	      0.09965540	     10.41003491	    -10.54355480	     -6.46504516	     22.77139766	     -6.26756959	    -15.30906914	     16.97928601	      0.29634445	     -5.41571400	    -16.83119864	     -6.46504516	     -9.10785871	      2.88852721	      8.15812656	     11.61311137	    -12.67078626	    -14.41489345	     45.68587553	    112.52745403	    -12.53495257	     -4.09089441	    -18.91028441	     20.00016996	    104.73060374
      0.43000000	      3.56665384	     -2.71784080	     -3.76807583	      0.38865122	      0.95701506	     -0.21284181	    -10.46072203	      5.74104027	     -7.62926695	      5.85700635	      0.10222405	     11.06457531	    -10.71075440	     -6.47897063	     22.88341488	     -6.37998023	    -15.16442042	     14.02871581	      0.24484728	     -5.10695159	    -15.69122587	     -6.47897063	     -8.89681851	      3.13347949	      8.47524000	     12.20224302	    -12.83456808	    -14.10377849	     46.09209834	    112.53811337	    -12.89477366	     -3.93358116	    -19.15009721	     20.00149024	    104.73053744
      0.44000000	      3.32459068	     -2.99876514	     -4.19037850	      0.39991783	      0.95458404	     -0.21218843	    -10.88826510	      5.95379407	     -7.09482356	      6.10011453	      0.10646708	     11.55108937	    -10.80002917	     -6.48752084	     23.00322805	     -6.61716994	    -14.86510715	     11.32960233	      0.19773886	     -4.60990385	    -14.76161116	     -6.48752084	     -8.66926652	      3.45657051	      8.74801062	     12.79948148	    -12.92437797	    -13.81184241	     46.53395965	    112.56306406	    -13.22788348	     -3.75293738	    -19.31095845	     19.94855977	    104.72778468
      0.45000000	      3.33573481	     -3.12315296	     -4.59732680	      0.41146147	      0.95244609	     -0.21160625	    -11.66557736	      5.97543710	     -6.64173756	      6.20677751	      0.10832870	     12.28211273	    -10.96824146	     -6.51374861	     22.71638241	     -6.70350857	    -14.60250236	      8.69377106	      0.15173493	     -3.73347497	    -13.34709017	     -6.51374861	     -8.73285461	      3.56026297	      9.00759581	     13.34323051	    -13.11341432	    -13.06769546	     46.92881623	    112.56203238	    -13.47961709	     -3.62405212	    -19.81716741	     20.00371975	    104.73930130
      0.46000000	      3.02970493	     -3.32639202	     -5.02907884	      0.42292917	      0.94975951	     -0.21103611	    -11.98648015	      6.08742436	     -6.05339692	      6.54928347	      0.11430656	     12.80176588	    -11.17204472	     -6.52356035	     22.82684072	     -6.94145085	    -13.94481188	      6.44416056	      0.11247182	     -3.09944261	    -12.68295375	     -6.52356035	     -8.43050631	      3.78357555	      9.26121800	     13.83876109	    -13.15056968	    -12.79107122	     47.25878094	    112.57157043	    -13.74948904	     -3.49381652	    -20.00515028	     19.94668720	    104.74354419
      0.47000000	      2.89838013	     -3.48499330	     -5.43955612	      0.43458535	      0.94728059	     -0.21049384	    -12.57146024	      6.14736450	     -5.49982269	      6.75124958	      0.11783153	     13.29834308	    -11.57509380	     -6.60221337	     22.71123434	     -7.17292614	    -13.47158589	      4.43859877	      0.07746816	     -2.35913091	    -12.06155751	     -6.60221337	     -8.32696880	      3.89978826	      9.33124363	     14.40546637	    -13.23017920	    -11.84972959	     47.40255396	    112.44232462	    -14.07071336	     -3.25874805	    -21.13304728	     20.18819927	    104.90396649
      0.48000000	      2.64136892	     -3.64023867	     -5.86985634	      0.44633645	      0.94463490	     -0.20993293	    -12.95336528	      6.19189477	     -5.02312891	      7.08767549	      0.12370327	     13.66826087	    -11.76066649	     -6.60852622	     22.81351589	     -7.48201354	    -13.09970338	      2.94156330	      0.05133996	     -1.83079998	    -11.89796302	     -6.60852622	     -8.06046716	      4.02961289	      9.53512330	     14.74286996	    -13.11313595	    -11.71859483	     47.73764119	    112.46292742	    -14.26138028	     -3.20479907	    -21.20616825	     20.06907154	    104.91246713
      0.49000000	      2.46380341	     -3.72373678	     -6.29477402	      0.45820071	      0.94213772	     -0.20941765	    -13.45212386	      6.14836711	     -4.53872094	      7.36127466	      0.12847848	     14.10413526	    -12.03838291	     -6.61532647	     22.85786660	     -7.74604816	    -12.76777387	      1.87628850	      0.03274741	     -1.31597860	    -11.86382358	     -6.61532647	     -7.89268203	      4.05185293	      9.75212151	     14.97695820	    -12.99003664	    -11.51578688	     48.07784567	    112.49306241	    -14.33449436	     -3.18554053	    -21.30366320	     19.93783025	    104.91506598
